<?xml version="1.0" encoding="UTF-8"?>
<svg id="Layer_1" data-name="Layer 1" xmlns="http://www.w3.org/2000/svg" viewBox="0 0 175.63 50">
  <defs>
    <style>
      .cls-1 {
        fill: #fff;
      }
    </style>
  </defs>
  <path class="cls-1" d="M23.71,0L0,49.24H33.51l6.8-13.62,6.81,13.62h8.56l-6.54-12.6,10.51,12.6h8.64l-2.54-13.12,6.58,13.12h8.56L57.02,0H23.71Zm31.52,24.82l2.01,11.08-8.65-11.08h-3.3L56.29,1.33s5.92,12.5,11.1,23.49h-12.16Zm109.78,24.42h10.62l-18.8-15.52,5.12-9.42-10.39,.03-3.68,8.08-4.09-8.06-8.86,.05,12.63,24.85h8.86l-4-7.85,1.07-2.04,11.53,9.89Zm-56.26-4.96c-2.54-5.02-4.59-5.63-7.93-6.59,2.75-.81,2.91-3.23,1.45-6.1-2.46-4.84-6.56-7.08-15.57-7.05l-12.76,.06,12.63,24.65h8.86l-4.4-8.45,2.7-.02c4.13-.01,5.27,1.07,6.92,4.33,1.12,2.21,2.15,3.73,2.66,4.14h8.97l-.39-.58c-1.05,0-1.5-1.13-3.15-4.38Zm-17-8.99h-3.49s-2.51-4.94-2.51-4.94h4.13c2.06-.02,3.99,.81,4.88,2.57,.88,1.73-.27,2.36-3.01,2.37Zm24.38-11.52c-8.41,.03-11.57,5.13-7.6,12.95,4.3,8.48,12.42,13.3,20.9,13.28,7.99-.03,11.76-4.82,7.47-13.3-3.33-6.57-11.12-12.96-20.76-12.93Zm10.21,20.14c-4.24,.01-7.31-3.96-8.92-7.15-1.6-3.15-2.29-6.89,1.73-6.9,3.85-.12,7.18,3.48,8.89,6.87,2.09,4.12,2.13,7.17-1.7,7.18Zm43.31-12.41c2.17,0,3.83-1.66,3.83-3.79s-1.66-3.74-3.83-3.74-3.85,1.66-3.85,3.74,1.71,3.79,3.85,3.79Zm0-6.77c1.67,0,2.87,1.35,2.87,3.01s-1.21,2.97-2.85,2.97-2.92-1.32-2.92-2.99,1.23-2.99,2.9-2.99Zm-.86,3.76h.67c.48,0,.71,.04,.77,.45,.12,.43,.18,.77,.3,.77h.94c-.09,0,0-.38-.12-.95-.11-.5-.53-.79-.53-.93v-.05c0-.14,.62-.46,.62-.87,0-.36-.24-.66-.44-.82-.27-.16-.74-.27-1.44-.27-.62,0-.77,.05-1.58,.11v3.77h.81v-1.22Zm.41-2s.19-.05,.42-.05c.55,0,.77,.28,.77,.63,0,.39-.42,.6-.9,.6h-.29v-1.18Z"/>
</svg>