<?xml version="1.0" encoding="UTF-8"?>
<svg id="Layer_1" data-name="Layer 1" xmlns="http://www.w3.org/2000/svg" xmlns:xlink="http://www.w3.org/1999/xlink" viewBox="0 0 141.77 53.92">
  <defs>
    <style>
      .cls-1, .cls-2, .cls-3, .cls-4 {
        fill: #fff;
      }

      .cls-2 {
        stroke-width: .25px;
      }

      .cls-2, .cls-5, .cls-3, .cls-4 {
        stroke: #fff;
        stroke-miterlimit: 10;
      }

      .cls-5 {
        fill: none;
      }

      .cls-3 {
        fill-rule: evenodd;
      }

      .cls-6 {
        clip-path: url(#clippath);
      }
    </style>
    <clipPath id="clippath">
      <polyline class="cls-4" points="135.31 30.47 141.27 30.47 141.27 24.35 135.31 24.35 135.31 30.47"/>
    </clipPath>
  </defs>
  <g>
    <polyline class="cls-1" points="135.31 30.47 141.27 30.47 141.27 24.35 135.31 24.35 135.31 30.47"/>
    <g class="cls-6">
      <path class="cls-3" d="M137.94,24.7c1.83-.23,3.35,1.16,3.22,3.02-.12,1.71-2.08,3.33-4.08,2.35-.8-.39-1.51-1.19-1.61-2.32-.15-1.69,1.05-2.88,2.47-3.06m-1.96,2.59c-.1,1.32,.86,2.56,2.28,2.59,1.18,.02,2.55-.92,2.39-2.63-.12-1.35-1.28-2.31-2.75-2.08-1.04,.16-1.84,.97-1.92,2.12"/>
    </g>
    <polyline class="cls-5" points="135.31 30.47 141.27 30.47 141.27 24.35 135.31 24.35 135.31 30.47"/>
  </g>
  <path class="cls-3" d="M69.61,1.57c4.19,8.94,8.28,17.99,12.32,27.08-1.18-.03-2.5,.07-3.6-.05-.66-1.02-1.07-2.19-1.59-3.33-.5-1.12-1.05-2.22-1.53-3.33h-11c-1.11,2.15-2.04,4.48-3.07,6.72-1.18-.03-2.72,.06-3.65-.05,3.98-9.06,8.12-17.96,12.11-27.02m-4.12,17.4h8.36c-1.38-3.12-2.73-6.26-4.23-9.25-1.35,3.11-2.77,6.15-4.12,9.25"/>
  <path class="cls-4" d="M79.75,28.8c-.49,0-.98-.01-1.43-.06h-.07s-.04-.07-.04-.07c-.49-.75-.85-1.61-1.2-2.43-.13-.31-.26-.61-.4-.92-.22-.48-.44-.96-.67-1.44-.28-.59-.57-1.2-.83-1.81h-10.81c-.72,1.39-1.37,2.87-1.99,4.31-.33,.76-.68,1.55-1.03,2.32l-.04,.09h-.1c-.43-.01-.91,0-1.37,0-.83,0-1.69,.02-2.29-.06l-.2-.02,.08-.18c2.03-4.62,4.13-9.27,6.17-13.77,1.96-4.33,3.99-8.81,5.94-13.26l.13-.3,.14,.3c3.63,7.74,7.43,16.09,12.32,27.08l.1,.22h-.24c-.45-.02-.92-.01-1.38,0-.27,0-.53,0-.8,0Zm-1.33-.35c.65,.07,1.4,.06,2.13,.05,.38,0,.77-.01,1.15,0-4.78-10.74-8.52-18.96-12.09-26.56-1.91,4.35-3.89,8.72-5.81,12.96-2.01,4.44-4.08,9.02-6.08,13.58,.57,.05,1.32,.04,2.05,.03,.43,0,.88,0,1.28,0,.34-.74,.67-1.49,.99-2.22,.64-1.47,1.31-2.99,2.04-4.41l.04-.08h11.19l.04,.09c.27,.63,.57,1.27,.86,1.89,.23,.48,.45,.96,.67,1.44,.14,.31,.27,.62,.4,.93,.35,.83,.68,1.61,1.14,2.32Zm-4.35-9.33h-8.81l.09-.21c.65-1.48,1.32-2.98,1.97-4.42,.71-1.58,1.45-3.21,2.15-4.83l.13-.29,.14,.29c1.27,2.53,2.44,5.2,3.59,7.79l.74,1.68Zm-8.36-.3h7.9l-.56-1.26c-1.1-2.49-2.23-5.05-3.44-7.49-.67,1.53-1.36,3.06-2.02,4.54-.62,1.38-1.26,2.8-1.88,4.21Z"/>
  <path class="cls-3" d="M131.96,7.7c-.88-.59-1.41-1.55-2.59-2.01-2.33-.91-5.64-.03-6.35,1.75-.25,.64-.28,1.38,.05,2.12,.71,1.56,2.97,2.4,4.81,3.22,3.57,1.6,7.3,3.78,7.56,8.46,.24,4.23-2.74,7.32-6.19,8.09-1.81,.41-3.9,.1-5.5-.48-3.05-1.1-4.89-3.46-6.03-6.5,1.16-.36,2.35-.69,3.54-1,.76,1.5,1.52,2.95,3.23,3.81,2.3,1.15,5.87,.5,6.93-1.8,.95-2.06-.27-4.25-1.59-5.34-1.69-1.41-4.48-2.13-6.5-3.23-2.39-1.3-4.55-3.68-4.18-7.14,.2-1.93,1.23-3.24,2.49-4.23,1.18-.92,2.86-1.68,5.13-1.69,2.97,0,5.65,1.15,7.35,2.91,.14,.15,.69,.68,.69,.74,0,.23-1.23,1.01-1.43,1.16-.56,.44-.92,.81-1.43,1.16"/>
  <path class="cls-4" d="M127.48,29.66c-1.23,0-2.55-.23-3.77-.67-2.84-1.02-4.84-3.18-6.12-6.59l-.06-.15,.15-.05c1.16-.37,2.34-.68,3.55-1.01l.12-.03,.05,.11c.73,1.42,1.48,2.9,3.16,3.74,1.28,.64,2.97,.72,4.41,.22,1.09-.38,1.91-1.07,2.31-1.94,.89-1.93-.18-4.03-1.55-5.16-1.03-.86-2.51-1.47-3.93-2.06-.87-.36-1.77-.73-2.55-1.15-1.43-.78-4.71-3.05-4.25-7.29,.18-1.71,1.01-3.13,2.54-4.33,1.45-1.14,3.21-1.72,5.22-1.72h.04c2.86,0,5.63,1.1,7.42,2.95,.03,.04,.09,.09,.15,.16,.55,.56,.58,.6,.57,.69,0,.19-.27,.44-1.21,1.08-.13,.09-.23,.16-.27,.19-.22,.17-.41,.34-.59,.49-.28,.24-.54,.46-.85,.68l-.08,.06-.08-.06c-.35-.23-.64-.53-.93-.81-.46-.45-.93-.91-1.63-1.19-2.26-.88-5.48-.01-6.15,1.66-.18,.46-.32,1.17,.05,2,.61,1.34,2.47,2.16,4.12,2.88,.21,.09,.41,.18,.61,.27,3.82,1.71,7.39,3.94,7.65,8.59,.25,4.43-2.98,7.5-6.3,8.24-.56,.13-1.17,.19-1.81,.19Zm-9.56-7.22c1.25,3.24,3.17,5.29,5.89,6.27,1.81,.65,3.83,.83,5.42,.47,3.2-.72,6.31-3.67,6.07-7.94-.26-4.49-3.74-6.66-7.48-8.34-.2-.09-.4-.18-.61-.27-1.7-.74-3.62-1.59-4.28-3.03-.33-.72-.34-1.51-.06-2.23,.74-1.84,4.1-2.78,6.54-1.83,.76,.3,1.25,.78,1.73,1.25,.27,.26,.52,.51,.81,.72,.26-.19,.5-.39,.74-.6,.18-.16,.37-.32,.6-.5,.05-.04,.15-.11,.29-.2,.26-.18,.93-.64,1.06-.83-.09-.11-.34-.36-.47-.49-.07-.07-.12-.13-.16-.16-1.74-1.79-4.43-2.86-7.21-2.86h-.03c-1.95,0-3.64,.57-5.04,1.66-1.46,1.15-2.26,2.5-2.43,4.13-.44,4.06,2.72,6.24,4.1,6.99,.76,.41,1.61,.77,2.52,1.14,1.45,.6,2.94,1.22,4.01,2.1,1.45,1.21,2.58,3.45,1.63,5.52-.43,.94-1.32,1.69-2.48,2.1-1.52,.53-3.3,.44-4.65-.23-1.73-.87-2.51-2.33-3.24-3.76-1.11,.3-2.2,.59-3.27,.92Z"/>
  <path class="cls-4" d="M29.86,21.57l3.3-.29c.24,1.65,.81,2.88,1.7,3.71,.89,.83,1.96,1.24,3.22,1.24,1.51,0,2.79-.58,3.84-1.75s1.57-2.72,1.57-4.65-.5-3.29-1.51-4.35c-1.01-1.06-2.32-1.59-3.95-1.59-1.01,0-1.93,.24-2.74,.71-.81,.47-1.45,1.08-1.92,1.83l-2.95-.39,2.48-13.47h12.73v3.08h-10.21l-1.38,7.05c1.54-1.1,3.15-1.65,4.84-1.65,2.23,0,4.12,.79,5.66,2.38,1.54,1.59,2.3,3.63,2.3,6.12s-.68,4.42-2.02,6.15c-1.64,2.12-3.88,3.18-6.72,3.18-2.33,0-4.23-.67-5.7-2-1.47-1.34-2.31-3.11-2.52-5.31Z"/>
  <path class="cls-3" d="M84.26,2.57c1.18-.12,2.59-.02,3.86-.05,2.06,3.07,3.86,6.4,5.92,9.47,1.94-3.13,3.81-6.34,5.76-9.47h3.91c-2.53,4.31-5.15,8.53-7.72,12.8,2.62,4.46,5.36,8.81,7.93,13.33h-3.86c-2.03-3.33-4.04-6.68-6.03-10.05-2.11,3.3-4.02,6.8-6.19,10.05-1.27,0-2.93-.01-3.86,0,2.64-4.48,5.37-8.87,8.04-13.33-2.59-4.26-5.14-8.54-7.77-12.74"/>
  <path class="cls-4" d="M83.73,28.8l.14-.23c1.55-2.63,3.15-5.26,4.7-7.81,1.08-1.78,2.2-3.62,3.29-5.44-.69-1.13-1.37-2.26-2.05-3.39-1.85-3.05-3.75-6.21-5.67-9.27l-.13-.2,.24-.02c.74-.08,1.58-.07,2.39-.05,.49,0,1,.01,1.48,0h.08s.05,.07,.05,.07c1.04,1.54,2.03,3.18,2.98,4.76,.9,1.5,1.84,3.04,2.81,4.51,.87-1.41,1.74-2.85,2.58-4.24,1-1.65,2.03-3.37,3.06-5.03l.04-.07h4.26l-.13,.22c-1.65,2.81-3.37,5.64-5.03,8.37-.88,1.45-1.77,2.9-2.64,4.36,1.04,1.77,2.12,3.55,3.16,5.27,1.57,2.6,3.19,5.28,4.73,7.98l.13,.22h-4.2l-.04-.07c-1.95-3.21-3.94-6.52-5.91-9.84-.87,1.38-1.73,2.81-2.55,4.19-1.12,1.88-2.28,3.82-3.51,5.66l-.04,.07h-.08c-.6,0-1.28,0-1.94,0-.74,0-1.43,0-1.92,0h-.27Zm1.07-.3c.35,0,.73,0,1.12,0,.62,0,1.28,0,1.85,0,1.2-1.81,2.35-3.73,3.45-5.58,.87-1.45,1.77-2.96,2.69-4.4l.13-.2,.12,.21c2,3.37,4.01,6.73,5.98,9.98h3.52c-1.5-2.62-3.07-5.23-4.6-7.75-1.06-1.75-2.15-3.55-3.21-5.35l-.05-.08,.05-.08c.89-1.48,1.79-2.96,2.69-4.43,1.62-2.66,3.29-5.4,4.9-8.14h-3.57c-1.02,1.64-2.04,3.32-3.02,4.95-.88,1.46-1.79,2.97-2.7,4.44l-.12,.2-.13-.19c-1.03-1.53-2-3.15-2.95-4.72-.94-1.56-1.91-3.16-2.93-4.68-.46,.01-.94,0-1.41,0-.72,0-1.45-.02-2.12,.03,1.88,3,3.74,6.08,5.55,9.07,.7,1.16,1.4,2.31,2.1,3.47l.05,.08-.05,.08c-1.11,1.85-2.24,3.71-3.34,5.52-1.51,2.48-3.06,5.03-4.57,7.58,.17,0,.35,0,.54,0Z"/>
  <path class="cls-3" d="M108.43,2.52h3.44V28.59c-1.06,.07-2.44,.1-3.49,0V2.68c0-.07,0-.15,.05-.16"/>
  <path class="cls-4" d="M109.93,28.81c-.52,0-1.08-.02-1.58-.07h-.13V2.68c0-.06-.02-.27,.18-.31h.02s3.59,0,3.59,0V28.73h-.14c-.38,.03-1.13,.07-1.94,.07Zm-1.41-.35c1.14,.1,2.52,.04,3.19,0V2.67h-3.19V28.46Z"/>
  <path class="cls-3" d="M137.07,25.84c1.03,.06,2.02-.18,2.39,.27,.17,.21,.27,.65,.16,.98-.04,.12-.35,.28-.35,.39,0,.05,.24,.26,.27,.35,.08,.22,0,.55,.04,.74,.03,.21,.18,.38,.16,.55h-.55c-.27-.35,.04-1.06-.31-1.34-.36-.08-.84-.02-1.26-.04-.09,.38-.01,.93-.04,1.38h-.51m.51-2.83v.98c.92,.15,2.03-.12,1.33-.94-.37-.08-.9-.02-1.33-.04"/>
  <path class="cls-2" d="M53.13,2.85h1.54V7.55c.42-.43,.82-.74,1.19-.93,.37-.19,.82-.29,1.35-.29,.62,0,1.15,.21,1.61,.62,.45,.41,.68,.91,.68,1.49v4.44h-1.54v-4.06c0-.4-.12-.72-.35-.96-.23-.24-.54-.36-.92-.36-.55,0-1.03,.18-1.42,.55-.39,.37-.59,.81-.59,1.33v3.51h-1.54V2.85Z"/>
  <path class="cls-2" d="M48.87,2.95h1.62v2.26h1.61v1.5h-1.61v6.27h-1.62V6.71h-1.28v-1.52h1.28V2.95Z"/>
  <path class="cls-4" d="M26.87,28.62H.5V2.28H26.87V28.62Zm-.46-22.64c.12-.47,0-1.09,0-1.61v-1.65c-6.11,.02-12.31-.05-18.35,.03,1.71,3.52,3.4,7.06,5.08,10.61,.64-.25,1.26-.5,2.04-.49,1.5,0,2.61,.82,3.39,1.55,2.21-2.43,4.62-4.89,6.89-7.35,.28-.31,.88-.8,.95-1.09m0,6c-.02-1.47,.05-3.03-.03-4.45-2.38,2.62-4.89,5.1-7.22,7.78,.14,.13,.17,.38,.33,.49,2.28-1.3,4.64-2.52,6.92-3.82m0,16.05c-.02-4.93,.05-9.95-.03-14.83-2.15,1.23-4.41,2.36-6.53,3.62,.58,2.05,.11,4.39-.92,5.77-.3,.4-.7,.65-.92,1.05,.73,1.43,1.39,2.94,2.11,4.39h6.29Zm-8.27-6.03c.82-.99,1.4-3.07,.82-4.75-.62,.37-1.27,.71-1.91,1.06,.46,1.13,.85,2.33,1.09,3.69m-10.91,6.03h11.8c-.6-1.33-1.2-2.67-1.88-3.92-1.75,1.08-4.42,.23-5.34-1.05-.41,.41-.81,.88-1.22,1.32-1.04,1.12-2.11,2.31-3.16,3.36-.06,.07-.28,.15-.2,.3m11.37-11.73c0-.15-.11-.18-.13-.3-.21,.21-.55,.46-.63,.7,.25-.14,.47-.3,.76-.4m-2.28,.49c.5-.56,1.04-1.07,1.52-1.65-.76-.75-1.97-1.41-3.49-1.08,.78,.8,1.39,1.75,1.98,2.73m.83,4.94c-.21-1.07-.55-2.02-.92-2.93-.18,.03-.31,.1-.4,.23,.45,.89,.83,1.85,1.32,2.7m-.83,.53c-.43-.87-.84-1.75-1.25-2.64-.17,.06-.25,.21-.33,.37,.47,.8,.97,1.73,1.58,2.27m-1.05-4.42c.15-.07,.26-.18,.33-.33-.45-.81-.96-1.74-1.58-2.27,.44,.84,.83,1.74,1.25,2.6m-2.31,4.91c.73,.56,1.87,.96,3,.66-.71-.72-1.35-1.79-1.98-2.7-.24,.27-.41,.48-.76,.86-.1,.1-.73,.63-.73,.76,0,.02,.33,.32,.46,.43m1.16-4.06c.16-.03,.26-.14,.4-.2-.36-.77-.74-1.7-1.12-2.44-.05-.09-.1-.23-.2-.26,.23,1.04,.55,2,.92,2.9m-2.77,1.52c.66-.34,1.3-.69,1.94-1.05-.47-1.11-.85-2.31-1.08-3.66-.85,.97-1.37,3-.86,4.71m.56,1.29c.17-.25,.53-.49,.59-.72-.22,.17-.5,.29-.76,.43,.04,.12,.07,.24,.16,.3m-.62-6.39c.32-.48,.72-.84,1.05-1.25-1.8-3.7-3.52-7.47-5.34-11.14H1.06l-.04,.1V25.85c2.39-1.27,4.78-2.59,7.12-3.86,.8-.43,1.59-.85,2.34-1.35-.63-2.02-.07-4.28,.79-5.54m-.1,7.08c-.13-.14-.16-.38-.33-.49-3.27,1.79-6.54,3.58-9.82,5.37v.96H5.74c1.82-1.94,3.68-3.83,5.44-5.84"/>
  <g>
    <path class="cls-4" d="M8.79,51.11l-2.07-7.86h1.79l1.31,5.4,1.58-5.4h2.08l1.52,5.49,1.33-5.49h1.76l-2.1,7.86h-1.86l-1.73-5.88-1.72,5.88h-1.9Z"/>
    <path class="cls-4" d="M18.37,48.18c0-.5,.14-.99,.41-1.45,.27-.47,.66-.83,1.16-1.07,.5-.25,1.05-.37,1.67-.37,.95,0,1.73,.28,2.33,.84s.91,1.27,.91,2.12-.31,1.58-.92,2.14-1.38,.85-2.31,.85c-.58,0-1.12-.12-1.65-.35-.52-.24-.92-.58-1.19-1.04-.27-.46-.41-1.01-.41-1.67Zm1.7,.08c0,.56,.15,1,.44,1.3s.66,.45,1.09,.45,.8-.15,1.09-.45c.29-.3,.44-.74,.44-1.31s-.15-.99-.44-1.29c-.29-.3-.66-.45-1.09-.45s-.8,.15-1.09,.45-.44,.73-.44,1.3Z"/>
    <path class="cls-4" d="M27.74,51.11h-1.66v-5.7h1.54v.81c.26-.38,.5-.63,.71-.76s.45-.18,.72-.18c.38,0,.74,.09,1.09,.28l-.51,1.31c-.28-.16-.54-.25-.78-.25s-.43,.06-.59,.17c-.16,.12-.29,.33-.38,.63-.09,.3-.14,.94-.14,1.91v1.76Z"/>
    <path class="cls-4" d="M30.8,51.11v-7.86h1.66v4.17l1.94-2.01h2.04l-2.15,2.08,2.3,3.62h-1.79l-1.58-2.56-.77,.73v1.82h-1.66Z"/>
    <path class="cls-4" d="M39.24,43.25v2.89c.54-.57,1.18-.85,1.92-.85,.38,0,.73,.06,1.03,.19,.31,.13,.54,.29,.69,.49s.26,.42,.32,.66,.09,.62,.09,1.13v3.34h-1.66v-3.01c0-.6-.03-.98-.09-1.14-.06-.16-.17-.29-.33-.38s-.36-.14-.6-.14c-.28,0-.52,.06-.74,.18-.22,.12-.38,.3-.48,.55-.1,.24-.15,.61-.15,1.09v2.85h-1.66v-7.86h1.66Z"/>
    <path class="cls-4" d="M44.6,48.18c0-.5,.14-.99,.41-1.45,.27-.47,.66-.83,1.16-1.07,.5-.25,1.05-.37,1.67-.37,.95,0,1.73,.28,2.33,.84s.91,1.27,.91,2.12-.31,1.58-.92,2.14-1.38,.85-2.31,.85c-.58,0-1.12-.12-1.65-.35-.52-.24-.92-.58-1.19-1.04-.27-.46-.41-1.01-.41-1.67Zm1.7,.08c0,.56,.15,1,.44,1.3s.66,.45,1.09,.45,.8-.15,1.09-.45c.29-.3,.44-.74,.44-1.31s-.15-.99-.44-1.29c-.29-.3-.66-.45-1.09-.45s-.8,.15-1.09,.45-.44,.73-.44,1.3Z"/>
    <path class="cls-4" d="M52.38,51.11v-7.86h1.66v7.86h-1.66Z"/>
    <path class="cls-4" d="M61.49,51.11h-1.54v-.84c-.26,.33-.56,.57-.91,.73-.35,.16-.7,.24-1.05,.24-.72,0-1.34-.26-1.85-.79-.51-.53-.77-1.26-.77-2.21s.25-1.7,.75-2.2,1.13-.75,1.9-.75c.7,0,1.31,.26,1.82,.79v-2.83h1.66v7.86Zm-4.43-2.97c0,.61,.09,1.05,.28,1.32,.27,.39,.64,.59,1.12,.59,.38,0,.71-.15,.98-.44,.27-.3,.4-.74,.4-1.32,0-.65-.13-1.13-.39-1.41s-.59-.43-1-.43-.72,.14-.99,.43-.4,.71-.4,1.27Z"/>
    <path class="cls-4" d="M63.13,44.64v-1.39h1.66v1.39h-1.66Zm0,6.47v-5.7h1.66v5.7h-1.66Z"/>
    <path class="cls-4" d="M72.2,51.11h-1.66v-2.91c0-.61-.04-1.01-.11-1.19-.07-.18-.19-.32-.35-.42-.16-.1-.35-.15-.58-.15-.29,0-.55,.07-.77,.21-.23,.14-.39,.33-.47,.57-.09,.24-.13,.67-.13,1.31v2.58h-1.66v-5.7h1.54v.84c.55-.64,1.24-.97,2.07-.97,.37,0,.7,.06,1,.18,.3,.12,.53,.27,.69,.46,.16,.19,.26,.4,.33,.63,.06,.24,.09,.57,.09,1.01v3.54Z"/>
    <path class="cls-4" d="M73.73,51.48l1.9,.21c.03,.2,.1,.34,.22,.41,.16,.11,.41,.16,.74,.16,.43,0,.76-.06,.98-.18,.15-.08,.26-.21,.33-.38,.05-.13,.08-.36,.08-.69v-.83c-.5,.62-1.12,.92-1.88,.92-.84,0-1.51-.32-2-.97-.39-.51-.58-1.15-.58-1.91,0-.95,.25-1.68,.76-2.19,.51-.5,1.14-.76,1.89-.76s1.42,.31,1.92,.93v-.8h1.55v5.11c0,.67-.06,1.17-.18,1.51-.12,.33-.29,.59-.51,.78-.22,.19-.52,.34-.88,.44-.37,.11-.83,.16-1.4,.16-1.06,0-1.82-.17-2.26-.5-.45-.33-.67-.75-.67-1.26,0-.05,0-.11,0-.18Zm1.48-3.34c0,.6,.13,1.05,.39,1.33,.26,.28,.58,.42,.95,.42,.41,0,.75-.14,1.03-.43,.28-.29,.42-.71,.42-1.28s-.13-1.03-.4-1.31c-.27-.29-.61-.43-1.02-.43s-.73,.14-.98,.42c-.26,.28-.39,.71-.39,1.28Z"/>
    <path class="cls-4" d="M84.65,51.11v-7.86h6.42v1.33h-4.67v1.74h4.35v1.33h-4.35v2.14h4.84v1.32h-6.59Z"/>
    <path class="cls-4" d="M94.44,51.11l-2.53-5.7h1.74l1.18,2.91,.34,.97c.09-.25,.15-.41,.17-.49,.06-.16,.11-.32,.18-.48l1.19-2.91h1.71l-2.49,5.7h-1.49Z"/>
    <path class="cls-4" d="M99.06,48.18c0-.5,.14-.99,.41-1.45,.27-.47,.66-.83,1.16-1.07,.5-.25,1.05-.37,1.67-.37,.95,0,1.73,.28,2.33,.84s.91,1.27,.91,2.12-.31,1.58-.92,2.14-1.38,.85-2.31,.85c-.58,0-1.12-.12-1.65-.35-.52-.24-.92-.58-1.19-1.04-.27-.46-.41-1.01-.41-1.67Zm1.7,.08c0,.56,.15,1,.44,1.3s.66,.45,1.09,.45,.8-.15,1.09-.45c.29-.3,.44-.74,.44-1.31s-.15-.99-.44-1.29c-.29-.3-.66-.45-1.09-.45s-.8,.15-1.09,.45-.44,.73-.44,1.3Z"/>
    <path class="cls-4" d="M106.84,51.11v-7.86h1.66v7.86h-1.66Z"/>
    <path class="cls-4" d="M111.93,51.11l-2.53-5.7h1.74l1.18,2.91,.34,.97c.09-.25,.15-.41,.17-.49,.06-.16,.11-.32,.18-.48l1.19-2.91h1.71l-2.49,5.7h-1.49Z"/>
    <path class="cls-4" d="M120.57,49.3l1.66,.25c-.21,.55-.55,.97-1.01,1.26s-1.03,.43-1.72,.43c-1.09,0-1.9-.32-2.42-.97-.41-.52-.62-1.17-.62-1.96,0-.94,.27-1.68,.82-2.22s1.23-.8,2.06-.8c.93,0,1.67,.28,2.21,.84,.54,.56,.8,1.42,.77,2.57h-4.16c.01,.45,.15,.79,.4,1.04s.58,.37,.96,.37c.26,0,.48-.06,.66-.19,.18-.13,.31-.34,.4-.62Zm.09-1.52c-.01-.44-.14-.77-.37-.99-.24-.23-.52-.34-.86-.34-.36,0-.66,.12-.9,.36s-.35,.56-.35,.98h2.48Z"/>
    <path class="cls-4" d="M129.42,51.11h-1.54v-.84c-.26,.33-.56,.57-.91,.73-.35,.16-.7,.24-1.05,.24-.72,0-1.34-.26-1.85-.79-.51-.53-.77-1.26-.77-2.21s.25-1.7,.75-2.2,1.13-.75,1.9-.75c.7,0,1.31,.26,1.82,.79v-2.83h1.66v7.86Zm-4.43-2.97c0,.61,.09,1.05,.28,1.32,.27,.39,.64,.59,1.12,.59,.38,0,.71-.15,.98-.44,.27-.3,.4-.74,.4-1.32,0-.65-.13-1.13-.39-1.41s-.59-.43-1-.43-.72,.14-.99,.43-.4,.71-.4,1.27Z"/>
    <path class="cls-4" d="M131.06,51.11v-1.51h1.66v1.51h-1.66Z"/>
  </g>
  <rect class="cls-4" x="1.04" y="35.33" width="140.23" height="1.7"/>
</svg>