<?xml version="1.0" encoding="UTF-8"?>
<svg id="Layer_1" data-name="Layer 1" xmlns="http://www.w3.org/2000/svg" xmlns:xlink="http://www.w3.org/1999/xlink" viewBox="0 0 472.24 181.27">
  <defs>
    <style>
      .cls-1 {
        letter-spacing: -.02em;
      }

      .cls-2, .cls-3, .cls-4, .cls-5, .cls-6 {
        fill: #231f20;
      }

      .cls-2, .cls-4 {
        stroke: #231f20;
        stroke-miterlimit: 10;
      }

      .cls-3 {
        fill-rule: evenodd;
      }

      .cls-7 {
        fill: #dd2828;
      }

      .cls-4 {
        stroke-width: .25px;
      }

      .cls-8 {
        clip-path: url(#clippath);
      }

      .cls-9 {
        fill: none;
      }

      .cls-10 {
        letter-spacing: 0em;
      }

      .cls-5 {
        font-family: Arial-BoldMT, Arial;
        font-size: 36.85px;
      }
    </style>
    <clipPath id="clippath">
      <polyline class="cls-9" points="452.22 98.17 472.24 98.17 472.24 77.62 452.22 77.62 452.22 98.17"/>
    </clipPath>
  </defs>
  <rect class="cls-7" x=".88" y="4.06" width="86.75" height="87.12"/>
  <g class="cls-8">
    <path class="cls-3" d="M461.05,78.81c6.15-.78,11.24,3.9,10.79,10.14-.41,5.75-6.97,11.17-13.69,7.9-2.68-1.31-5.07-3.99-5.4-7.77-.5-5.66,3.54-9.66,8.3-10.27m-6.59,8.69c-.34,4.43,2.88,8.59,7.64,8.69,3.96,.08,8.56-3.08,8.03-8.83-.42-4.53-4.28-7.73-9.22-6.97-3.49,.53-6.16,3.27-6.45,7.11"/>
  </g>
  <path class="cls-3" d="M231.83,1.21c14.07,29.99,27.76,60.35,41.34,90.83-3.97-.12-8.39,.23-12.07-.18-2.23-3.41-3.6-7.35-5.32-11.17-1.68-3.74-3.53-7.45-5.14-11.18h-36.9c-3.74,7.2-6.85,15.03-10.29,22.53-3.97-.09-9.13,.2-12.24-.18,13.35-30.41,27.25-60.26,40.62-90.65m-13.83,58.37h28.03c-4.63-10.45-9.17-20.99-14.2-31.05-4.53,10.43-9.29,20.64-13.83,31.05"/>
  <path class="cls-6" d="M265.85,92.57c-1.66,0-3.29-.04-4.8-.21l-.23-.03-.13-.2c-1.66-2.53-2.86-5.39-4.03-8.15-.43-1.03-.87-2.06-1.33-3.08-.72-1.61-1.48-3.22-2.23-4.82-.93-1.99-1.9-4.04-2.78-6.07h-36.27c-2.4,4.65-4.58,9.64-6.69,14.46-1.12,2.56-2.28,5.21-3.45,7.77l-.14,.3h-.33c-1.43-.04-3.04-.02-4.61,0-2.78,.03-5.66,.06-7.68-.19l-.67-.08,.27-.62c6.8-15.49,13.86-31.09,20.69-46.18,6.58-14.53,13.38-29.56,19.93-44.47l.44-1.01,.47,1c12.18,25.97,24.93,53.99,41.34,90.84l.32,.73-.79-.02c-1.49-.04-3.08-.02-4.62,0-.89,.01-1.79,.02-2.69,.02Zm-4.45-1.18c2.2,.22,4.7,.19,7.13,.15,1.28-.02,2.59-.04,3.87-.02-16.05-36.03-28.59-63.59-40.55-89.11-6.42,14.58-13.07,29.26-19.49,43.47-6.73,14.88-13.69,30.26-20.41,45.54,1.9,.16,4.42,.14,6.87,.11,1.45-.01,2.95-.03,4.31,0,1.13-2.47,2.24-5,3.31-7.46,2.16-4.94,4.39-10.04,6.86-14.79l.14-.27h37.53l.13,.3c.91,2.11,1.92,4.26,2.9,6.34,.76,1.61,1.51,3.22,2.24,4.83,.46,1.03,.9,2.07,1.34,3.1,1.17,2.77,2.28,5.4,3.82,7.8Zm-14.6-31.31h-29.56l.31-.7c2.17-4.98,4.43-9.99,6.62-14.84,2.38-5.29,4.85-10.76,7.21-16.21l.43-.98,.48,.96c4.24,8.49,8.2,17.46,12.03,26.13l2.49,5.64Zm-28.04-1h26.5l-1.87-4.23c-3.68-8.34-7.48-16.95-11.53-25.13-2.23,5.12-4.55,10.26-6.79,15.23-2.08,4.62-4.23,9.39-6.31,14.13Z"/>
  <path class="cls-3" d="M440.99,21.78c-2.94-1.99-4.73-5.19-8.69-6.74-7.82-3.06-18.91-.09-21.29,5.86-.86,2.14-.94,4.63,.18,7.1,2.37,5.23,9.96,8.04,16.14,10.82,11.99,5.38,24.48,12.68,25.37,28.39,.81,14.2-9.19,24.55-20.76,27.14-6.08,1.36-13.08,.33-18.45-1.6-10.22-3.68-16.41-11.62-20.23-21.82,3.88-1.22,7.88-2.3,11.89-3.37,2.57,5.03,5.1,9.9,10.82,12.77,7.73,3.87,19.69,1.69,23.24-6.03,3.18-6.93-.9-14.24-5.33-17.92-5.66-4.72-15.04-7.13-21.82-10.82-8.01-4.36-15.26-12.36-14.01-23.95,.69-6.46,4.12-10.88,8.34-14.19,3.95-3.1,9.58-5.65,17.21-5.68,9.96-.03,18.94,3.85,24.66,9.76,.47,.49,2.31,2.29,2.3,2.48,0,.76-4.12,3.37-4.79,3.9-1.87,1.49-3.1,2.73-4.79,3.9"/>
  <path class="cls-6" d="M425.98,95.46c-4.12,0-8.55-.77-12.65-2.24-9.53-3.43-16.24-10.66-20.53-22.12l-.18-.49,.5-.16c3.91-1.23,7.86-2.3,11.91-3.37l.39-.1,.18,.36c2.44,4.78,4.96,9.72,10.6,12.55,4.29,2.15,9.96,2.43,14.81,.72,3.66-1.29,6.42-3.6,7.76-6.52,2.97-6.47-.61-13.51-5.19-17.33-3.46-2.88-8.4-4.92-13.19-6.9-2.93-1.21-5.95-2.46-8.55-3.87-4.8-2.61-15.8-10.22-14.27-24.44,.61-5.75,3.4-10.5,8.53-14.53,4.86-3.81,10.75-5.76,17.51-5.78h.12c9.59,0,18.89,3.7,24.91,9.91,.11,.12,.3,.31,.52,.53,1.86,1.88,1.93,2.02,1.92,2.32,0,.64-.92,1.46-4.06,3.64-.42,.29-.76,.52-.91,.65-.73,.58-1.37,1.13-1.97,1.65-.93,.8-1.8,1.55-2.85,2.27l-.28,.19-.28-.19c-1.16-.79-2.16-1.76-3.12-2.71-1.53-1.51-3.12-3.06-5.47-3.98-7.59-2.97-18.39-.05-20.64,5.58-.61,1.53-1.08,3.94,.17,6.71,2.03,4.49,8.3,7.23,13.83,9.66,.7,.3,1.38,.61,2.06,.91,12.81,5.75,24.78,13.22,25.67,28.82,.84,14.86-10,25.16-21.15,27.66-1.88,.42-3.93,.63-6.07,.63Zm-32.05-24.21c4.18,10.88,10.65,17.76,19.74,21.03,6.06,2.18,12.85,2.77,18.17,1.58,10.74-2.41,21.18-12.32,20.37-26.62-.86-15.07-12.56-22.34-25.08-27.96-.67-.3-1.36-.6-2.05-.9-5.7-2.5-12.15-5.33-14.34-10.16-1.09-2.41-1.16-5.07-.19-7.49,2.48-6.18,13.75-9.34,21.94-6.14,2.54,1,4.2,2.62,5.81,4.2,.89,.87,1.74,1.7,2.7,2.4,.88-.63,1.66-1.3,2.48-2.01,.61-.53,1.25-1.08,2-1.67,.16-.13,.52-.37,.97-.69,.88-.61,3.11-2.15,3.57-2.78-.31-.37-1.14-1.21-1.57-1.65-.23-.23-.42-.42-.53-.54-5.83-6.02-14.87-9.6-24.19-9.6h-.12c-6.53,.02-12.22,1.9-16.9,5.57-4.9,3.85-7.57,8.38-8.15,13.85-1.46,13.62,9.13,20.94,13.76,23.46,2.55,1.39,5.42,2.57,8.45,3.83,4.86,2,9.88,4.08,13.45,7.05,4.87,4.05,8.65,11.57,5.46,18.51-1.46,3.16-4.42,5.67-8.33,7.04-5.09,1.79-11.06,1.49-15.59-.77-5.79-2.91-8.41-7.82-10.86-12.63-3.72,.99-7.37,1.98-10.97,3.1Z"/>
  <path class="cls-2" d="M98.5,68.31l11.07-.96c.82,5.52,2.72,9.67,5.71,12.45,2.99,2.78,6.59,4.17,10.8,4.17,5.07,0,9.37-1.96,12.88-5.88s5.27-9.12,5.27-15.6-1.69-11.02-5.07-14.58c-3.38-3.56-7.8-5.34-13.26-5.34-3.4,0-6.46,.79-9.19,2.37-2.73,1.58-4.88,3.63-6.44,6.15l-9.9-1.32L108.69,4.58h42.69V14.9h-34.26l-4.63,23.64c5.15-3.68,10.56-5.52,16.22-5.52,7.5,0,13.82,2.66,18.97,7.98,5.15,5.32,7.73,12.16,7.73,20.52s-2.26,14.84-6.79,20.64c-5.5,7.12-13.02,10.68-22.55,10.68-7.81,0-14.18-2.24-19.12-6.72-4.94-4.48-7.76-10.42-8.46-17.82Z"/>
  <path class="cls-3" d="M280.98,4.58c3.96-.41,8.69-.06,12.95-.18,6.92,10.29,12.96,21.46,19.87,31.75,6.51-10.51,12.79-21.27,19.34-31.75h13.13c-8.49,14.45-17.28,28.62-25.9,42.93,8.8,14.97,17.99,29.55,26.61,44.71h-12.95c-6.8-11.18-13.54-22.42-20.23-33.71-7.07,11.08-13.5,22.8-20.76,33.71-4.25,.03-9.82-.05-12.95,0,8.86-15.03,18.02-29.76,26.97-44.71-8.67-14.28-17.24-28.65-26.08-42.75"/>
  <path class="cls-6" d="M279.2,92.56l.45-.77c5.19-8.81,10.58-17.66,15.78-26.21,3.63-5.97,7.38-12.13,11.04-18.24-2.3-3.79-4.6-7.59-6.89-11.39-6.19-10.24-12.59-20.83-19.03-31.1l-.43-.68,.8-.08c2.49-.26,5.3-.22,8.03-.18,1.65,.02,3.35,.05,4.95,0h.28s.15,.22,.15,.22c3.49,5.18,6.8,10.67,10,15.98,3.03,5.02,6.17,10.21,9.44,15.13,2.92-4.72,5.83-9.55,8.65-14.24,3.34-5.55,6.8-11.29,10.28-16.86l.15-.24h14.28l-.44,.75c-5.55,9.44-11.31,18.91-16.88,28.07-2.96,4.87-5.92,9.73-8.87,14.61,3.49,5.94,7.1,11.91,10.6,17.68,5.27,8.71,10.71,17.71,15.87,26.78l.42,.75h-14.09l-.15-.24c-6.54-10.76-13.21-21.86-19.81-33.01-2.93,4.62-5.79,9.41-8.57,14.05-3.77,6.3-7.66,12.82-11.76,18.98l-.15,.22h-.27c-2,.02-4.3,0-6.49,0-2.47-.01-4.8-.02-6.46,0h-.89Zm3.58-1.02c1.16,0,2.45,0,3.77,.01,2.09,0,4.28,.02,6.22,0,4.03-6.07,7.87-12.5,11.59-18.71,2.92-4.88,5.93-9.92,9.02-14.77l.44-.69,.42,.7c6.69,11.3,13.45,22.56,20.08,33.46h11.81c-5.02-8.8-10.31-17.55-15.43-26.01-3.55-5.86-7.21-11.92-10.75-17.95l-.15-.26,.15-.25c3-4.97,6.01-9.92,9.02-14.87,5.42-8.91,11.03-18.12,16.43-27.3h-11.98c-3.42,5.49-6.83,11.14-10.12,16.61-2.96,4.9-6.01,9.97-9.07,14.91l-.41,.66-.43-.64c-3.45-5.13-6.73-10.57-9.9-15.82-3.15-5.22-6.41-10.61-9.82-15.71-1.54,.04-3.16,.01-4.72,0-2.4-.03-4.88-.07-7.11,.1,6.29,10.06,12.55,20.41,18.6,30.43,2.35,3.88,4.69,7.77,7.05,11.64l.16,.26-.16,.26c-3.71,6.19-7.52,12.45-11.2,18.51-5.05,8.31-10.27,16.89-15.32,25.44,.56,0,1.17,0,1.82,0Z"/>
  <path class="cls-3" d="M362.06,4.4h11.53V91.86c-3.56,.23-8.17,.35-11.71,0V4.93c-.01-.25-.03-.5,.18-.53"/>
  <path class="cls-6" d="M367.11,92.58c-1.76,0-3.61-.06-5.29-.22l-.45-.04V4.93c-.01-.22-.05-.92,.6-1.02h.08s12.03,0,12.03,0V92.33l-.47,.03c-1.29,.08-3.79,.22-6.51,.22Zm-4.74-1.17c3.83,.33,8.45,.12,10.71-.01V4.9h-10.71V91.4Z"/>
  <path class="cls-3" d="M458.15,82.63c3.44,.21,6.76-.61,8.03,.92,.57,.7,.9,2.18,.53,3.29-.14,.41-1.17,.94-1.19,1.32,0,.15,.82,.87,.92,1.19,.26,.74,.03,1.85,.13,2.5,.11,.71,.59,1.28,.53,1.85h-1.84c-.92-1.17,.13-3.54-1.05-4.48-1.19-.26-2.82-.07-4.22-.13-.31,1.28-.04,3.12-.13,4.61h-1.71m1.71-9.48v3.3c3.08,.52,6.81-.41,4.48-3.16-1.25-.28-3.02-.06-4.48-.14"/>
  <path class="cls-4" d="M176.56,5.52h5.16v15.74c1.42-1.43,2.75-2.47,3.99-3.12,1.24-.65,2.74-.97,4.53-.97,2.08,0,3.87,.69,5.39,2.08,1.51,1.39,2.27,3.05,2.27,4.98v14.88h-5.16v-13.62c0-1.35-.39-2.42-1.17-3.24-.78-.81-1.82-1.22-3.1-1.22-1.86,0-3.45,.61-4.76,1.84-1.32,1.23-1.97,2.71-1.97,4.45v11.78h-5.16V5.52Z"/>
  <path class="cls-4" d="M162.26,5.84h5.45v7.58h5.39v5.02h-5.39v21.04h-5.45V18.45h-4.29v-5.09h4.29V5.84Z"/>
  <path class="cls-6" d="M88.45,91.95H0V3.61H88.45V91.95Zm-1.55-75.96c.39-1.58,0-3.66,0-5.41V5.05c-20.49,.07-41.28-.15-61.57,.1,5.73,11.81,11.4,23.68,17.03,35.6,2.14-.83,4.23-1.66,6.86-1.65,5.02,0,8.74,2.75,11.38,5.19,7.42-8.16,15.51-16.39,23.12-24.65,.94-1.04,2.96-2.67,3.2-3.66m0,20.12c-.07-4.93,.16-10.17-.1-14.92-7.99,8.78-16.41,17.11-24.22,26.09,.48,.44,.56,1.28,1.1,1.65,7.64-4.37,15.56-8.47,23.22-12.82m0,53.85c-.07-16.55,.16-33.39-.1-49.75-7.21,4.13-14.8,7.91-21.89,12.16,1.95,6.87,.36,14.71-3.1,19.34-1,1.34-2.35,2.19-3.09,3.54,2.45,4.81,4.66,9.86,7.08,14.71h21.11Zm-27.74-20.24c2.74-3.33,4.71-10.31,2.75-15.92-2.07,1.24-4.27,2.37-6.41,3.54,1.55,3.79,2.86,7.82,3.66,12.38m-36.6,20.24H62.14c-2.03-4.47-4.01-8.96-6.29-13.16-5.87,3.61-14.82,.78-17.91-3.54-1.36,1.38-2.72,2.94-4.1,4.42-3.5,3.76-7.09,7.75-10.61,11.27-.2,.22-.93,.5-.66,1.01M60.71,50.61c0-.49-.36-.61-.44-1.01-.71,.7-1.86,1.55-2.11,2.33,.83-.46,1.58-1.01,2.55-1.33m-7.64,1.65c1.67-1.87,3.49-3.59,5.09-5.53-2.54-2.52-6.6-4.75-11.72-3.64,2.6,2.67,4.68,5.87,6.63,9.17m2.77,16.58c-.72-3.59-1.84-6.78-3.1-9.83-.6,.1-1.05,.34-1.33,.76,1.51,2.98,2.79,6.19,4.42,9.07m-2.77,1.77c-1.43-2.91-2.82-5.87-4.2-8.84-.56,.21-.85,.7-1.11,1.23,1.56,2.67,3.26,5.8,5.31,7.62m-3.54-14.81c.51-.22,.88-.6,1.1-1.11-1.51-2.7-3.21-5.83-5.3-7.62,1.48,2.82,2.79,5.83,4.2,8.73m-7.74,16.48c2.46,1.87,6.28,3.23,10.07,2.21-2.38-2.41-4.54-6.02-6.63-9.07-.8,.9-1.38,1.62-2.55,2.88-.32,.32-2.43,2.12-2.43,2.54,0,.06,1.11,1.08,1.55,1.44m3.88-13.61c.54-.1,.87-.46,1.33-.66-1.22-2.57-2.48-5.7-3.76-8.18-.17-.31-.34-.77-.67-.89,.77,3.51,1.85,6.7,3.1,9.73m-9.29,5.09c2.21-1.14,4.37-2.31,6.51-3.54-1.56-3.73-2.86-7.74-3.64-12.26-2.84,3.26-4.59,10.07-2.88,15.8m1.87,4.32c.56-.85,1.77-1.64,1.99-2.43-.75,.58-1.67,.97-2.53,1.43,.12,.39,.24,.8,.54,1.01m-2.09-21.45c1.09-1.62,2.41-2.82,3.54-4.2-6.04-12.4-11.82-25.05-17.91-37.37H1.89l-.12,.32V82.67c8.03-4.25,16.02-8.67,23.88-12.94,2.67-1.44,5.34-2.86,7.86-4.52-2.11-6.77-.22-14.36,2.65-18.57m-.34,23.76c-.44-.46-.55-1.29-1.1-1.65-10.97,6-21.94,12.03-32.95,18.01v3.21h15.82c6.11-6.5,12.35-12.86,18.23-19.58"/>
  <text class="cls-5" transform="translate(20.73 167.4) scale(1.1 1)"><tspan class="cls-1" x="0" y="0">W</tspan><tspan class="cls-10" x="34.11" y="0">orkholding Evolved.</tspan></text>
  <rect class="cls-6" x="1.8" y="114.47" width="470.44" height="5.71"/>
</svg>