<?xml version="1.0" encoding="UTF-8"?>
<svg id="Layer_1" data-name="Layer 1" xmlns="http://www.w3.org/2000/svg" viewBox="0 0 289.3 65.65">
  <defs>
    <style>
      .cls-1 {
        fill: #fd0;
        stroke: #000;
        stroke-width: 2px;
      }

      .cls-2 {
        fill: #231f20;
      }
    </style>
  </defs>
  <polygon class="cls-1" points="1 64.65 1 1 288.3 1 288.17 64.65 1 64.65"/>
  <path class="cls-2" d="M218.4,18.05v4.6s1.2-.2,1.2,1.2v13s.5,1-1.2,1v4.4h12.3v-4.4s-1.35,.2-1.35-1v-13s-.25-1.25,1.35-1.2v-4.6h-12.3Z"/>
  <path class="cls-2" d="M131.8,18.05v4.6s1.2-.05,1.2,1.2,0,0,0,0v13s0,1-1.2,1v4.4h22.25v-6.8h-5.7v1.4s.3,1-.6,1h-4.1s-.85-.1-.8-1v-4.2h4.35v-4.35h-3.4s-.95,.05-.95-.95v-3.5s-.3-1.2,.7-1.2h4.05s1,0,.75,1.2v1.25h5.7v-7.05h-22.25Z"/>
  <path class="cls-2" d="M110.1,5V15.6h4.35v-5.75h3.75v15s.25,.9-1.2,.9v10.3h12.05v-10.25s-1.15,.05-1.15-.95V10h3.95v5.6h4.2V5h-25.95Z"/>
  <path class="cls-2" d="M102.45,18.05v4.6s1.2-.2,1.2,1.2v13s.5,1-1.2,1v4.4h12.3v-4.4s-1.35,.2-1.35-1v-13s-.25-1.25,1.35-1.2v-4.6h-12.3Z"/>
  <path class="cls-2" d="M63.6,18.05v4.6s1.33-.53,1.47,1.2l-.07,13s.13,.73-1.4,.8v4.6h8.7v-4.6s-1.5,.13-1.52-.8l.02-11.7s.15-1.95,1.1-.05l6.9,17.15h1.6l7.2-17.15s.8-2.05,.95,0c.16,2.2,0,2.9,0,2.9v8.85s.25,1-1.35,1v4.4h11.4v-4.4s-1.2,.3-1.2-1l.07-12.87s-.02-1.33,1.08-1.33v-4.6h-12.55l-4.67,8.33-3.53-8.33h-14.2Z"/>
  <path class="cls-2" d="M1,.98v63.67H58.2V.98H1ZM25,63.05v-9.2H7.4v-12.2l17.6,9.8,17.6-9.8V23.45L25,13.05,7.4,23.45V10.25H25V2.65l31.2,30.4-31.2,30Zm-13.72-30.4c0-7.58,6.14-13.72,13.72-13.72s13.72,6.14,13.72,13.72-6.14,13.72-13.72,13.72-13.72-6.14-13.72-13.72Z"/>
  <polygon class="cls-2" points="17.8 26.15 25 26.15 29 32.75 25 39.05 17.8 39.05 13.8 32.65 17.8 26.15"/>
  <path class="cls-2" d="M157,18.05v4.6s1.2-.05,1.2,1.2,0,0,0,0v13s0,1-1.2,1v4.4h22.25v-6.8h-5.7v1.4s.3,1-.6,1h-4.1s-.85-.1-.8-1v-4.2h4.35v-4.35h-3.4s-.95,.05-.95-.95v-3.5s-.3-1.2,.7-1.2h4.05s1,0,.75,1.2v1.25h5.7v-7.05h-22.25Z"/>
  <path class="cls-2" d="M260.3,18.05v4.6s1.2-.05,1.2,1.2,0,0,0,0v13s0,1-1.2,1v4.4h22.25v-6.8h-5.7v1.4s.3,1-.6,1h-4.1s-.85-.1-.8-1v-4.2h4.35v-4.35h-3.4s-.95,.05-.95-.95v-3.5s-.3-1.2,.7-1.2h4.05s1,0,.75,1.2v1.25h5.7v-7.05h-22.25Z"/>
  <rect class="cls-2" x="180.4" y="28.72" width="6.13" height="4.6"/>
  <path class="cls-2" d="M211.26,29.92s2.95-1.33,3.6-3.6c0,0,.6-2.6-.13-4.33,0,0-.55-3.33-5.88-3.93h-19.92v4.6s1.27-.38,1.27,1.2v13s.33,.93-1.27,1v4.4h21.52s5-.07,5.6-5.4c0,0,.55-5-4.78-6.93Zm-8.52,7.97h-3.27v-5.4l3.8-.05c2.07,.2,2.2,2.93,2.2,2.93-.47,2.87-2.73,2.52-2.73,2.52Zm.02-9.82h-3.27v-5.4l3.8-.05c2.07,.2,2.2,2.93,2.2,2.93-.47,2.87-2.73,2.52-2.73,2.52Z"/>
  <path class="cls-2" d="M234.25,18.05v10.07h4.27v-4.62h2.6v13.15s.33,1.2-1.07,1.2v4.4h11.35v-4.4s-1.2,.2-1.18-1v-13.38h2.83v4.65h4.07v-10.07h-22.87Z"/>
  <path class="cls-2" d="M275.74,12.93c0-2.01,1.64-3.66,3.67-3.66s3.66,1.64,3.66,3.66-1.63,3.67-3.66,3.67-3.67-1.64-3.67-3.67Zm6.89,0c0-1.77-1.44-3.21-3.21-3.21s-3.22,1.44-3.22,3.21,1.44,3.23,3.22,3.23,3.21-1.44,3.21-3.23Zm-1.39,2.05h-.6l-1.17-1.89h-.92v1.89h-.5v-4.1h1.79c.34,0,.69,.02,1,.2,.31,.17,.46,.54,.46,.88,0,.81-.57,1.1-1.3,1.12l1.24,1.89Zm-1.92-2.28c.58,0,1.47,.1,1.47-.74,0-.63-.56-.71-1.07-.71h-1.17v1.45h.77Z"/>
  <g>
    <path class="cls-2" d="M233.08,59.31v-12.64h6.19v9.19h7.45v3.45h-13.64Z"/>
    <path class="cls-2" d="M249.44,59.31v-12.64h6.19v9.19h7.45v3.45h-13.64Z"/>
    <path class="cls-2" d="M276.67,51.5c-.18-1.32-1.41-2.07-3.36-2.07-2.18,0-3.49,1.25-3.49,3.69,0,1.77,.58,3.44,3.72,3.44,2,0,2.94-.93,3.17-2.14h5.95c-.55,3.26-4.04,5.23-9.02,5.23-6.24,0-10.02-2.56-10.02-6.67s4.14-6.64,9.41-6.64c5.77,0,8.99,1.91,9.49,5.16h-5.87Z"/>
    <path class="cls-2" d="M63.62,59.29v-12.61h8.74c5.44,0,8.08,1.66,8.08,4.26s-2.42,4.43-7.87,4.43h-3.13v3.92h-5.82Zm8.39-6.87c1.45,0,2.5-.38,2.5-1.47,0-1.17-2-1.33-3.31-1.33h-1.76v2.8h2.58Z"/>
    <path class="cls-2" d="M88.53,54.9v4.4h-6.21v-12.61h8.94c6.31,0,8.39,1.14,8.39,3.59,0,1.45-.97,2.68-3.18,3.08,2,.49,3.21,.81,3.21,3.35,0,1.65-.08,2.21,.66,2.21v.39h-6.29c-.16-.28-.32-1.09-.32-2.21,0-1.65-.42-2.19-3.31-2.19h-1.89Zm0-2.77h2.45c1.92,0,2.95-.32,2.95-1.19s-1.05-1.31-2.5-1.31h-2.89v2.5Z"/>
    <path class="cls-2" d="M122.07,52.92c0,4.29-4.34,6.71-9.94,6.71-5.94,0-9.92-2.45-9.92-6.74,0-3.96,4.02-6.53,9.92-6.53,6.76,0,9.94,3.24,9.94,6.57Zm-13.65,0c0,1.61,.74,3.62,3.71,3.62,2.68,0,3.74-1.54,3.74-3.62,0-1.72-1.05-3.54-3.79-3.49-2.81,0-3.66,1.89-3.66,3.49Z"/>
    <path class="cls-2" d="M124.81,59.29v-12.61h8.31c6.1,0,9.89,1.89,9.89,6.04,0,4.75-3.97,6.57-10.05,6.57h-8.15Zm6.21-2.94h1.31c2.89,0,4.47-1.02,4.47-3.4,0-2.63-1.29-3.33-4.6-3.33h-1.18v6.73Z"/>
    <path class="cls-2" d="M145.4,46.68h6.21v7.55c0,1.24,.37,2.31,2.92,2.31,2.24,0,2.89-.95,2.89-2.31v-7.55h6.21v7.13c0,4.05-2.81,5.82-9.1,5.82-5.87,0-9.13-1.49-9.13-5.83v-7.11Z"/>
    <path class="cls-2" d="M179.13,51.5c-.18-1.31-1.42-2.07-3.37-2.07-2.18,0-3.5,1.24-3.5,3.68,0,1.77,.58,3.43,3.74,3.43,2,0,2.95-.93,3.18-2.14h5.97c-.55,3.26-4.05,5.22-9.05,5.22-6.26,0-10.05-2.56-10.05-6.66s4.16-6.62,9.44-6.62c5.79,0,9.02,1.91,9.52,5.15h-5.89Z"/>
    <path class="cls-2" d="M185.58,46.68h17.36v3.31h-5.58v9.3h-6.21v-9.3h-5.58v-3.31Z"/>
    <path class="cls-2" d="M214.59,50.34c-.1-.44-.45-.7-.89-.86-.45-.16-1-.23-1.6-.23-1.37,0-1.97,.26-1.97,.72,0,1.89,10.89,.72,10.89,5.31,0,2.93-3.66,4.34-8.87,4.34s-8.26-1.94-8.39-4.22h5.95c.13,.45,.5,.79,1.03,1,.5,.21,1.16,.32,1.76,.32,1.55,0,2.58-.33,2.58-.93,0-1.91-10.89-.6-10.89-5.41,0-2.68,3.47-4.03,8.21-4.03,5.26,0,7.66,1.79,8.1,3.99h-5.89Z"/>
  </g>
</svg>