<?xml version="1.0" encoding="UTF-8"?>
<svg id="Layer_1" data-name="Layer 1" xmlns="http://www.w3.org/2000/svg" viewBox="0 0 293.93 74.69">
  <defs>
    <style>
      .cls-1 {
        fill: #fff;
      }

      .cls-2 {
        fill: #003c69;
      }

      .cls-3 {
        fill: #009fe3;
      }
    </style>
  </defs>
  <path class="cls-2" d="M256.63,74.68c20.6,0,37.3-16.7,37.3-37.3S277.23,.08,256.63,.08s-201.86-.08-219.29-.08C16.72,0,0,16.7,0,37.3s16.72,37.39,37.34,37.39c17.45,0,198.69,0,219.29,0h0Z"/>
  <g>
    <path class="cls-1" d="M49.2,43.04c2.17,1.56,4.25,2.36,6.13,2.36,1.45,0,2.24-.69,2.24-1.63,0-2.57-8.37-2.91-8.37-9.84,0-2.98,1.98-7.11,7.94-7.11,2.67,0,4.84,.76,7.08,2.53v6.24c-2.17-2.11-3.92-3.09-5.6-3.09-1.32,0-2.17,.62-2.17,1.63,0,2.88,8.66,3.19,8.66,9.91,0,3.4-2.27,7.03-8.13,7.03-2.9,0-5.5-.52-7.77-1.63v-6.41h0Z"/>
    <path class="cls-1" d="M87.22,49c-2.34,1.39-5.27,2.08-8.36,2.08-9.39,0-12.61-6.62-12.61-12.03,0-6.9,4.77-12.23,13.01-12.23,2.96,0,5.6,.56,7.77,1.59v6.9c-2.27-1.53-4.25-2.18-6.52-2.18-3.95,0-6.39,2.22-6.39,5.82s2.5,5.82,6.46,5.82c2.27,0,4.12-.59,6.65-2.08v6.31h0Z"/>
    <polygon class="cls-1" points="89.08 27.13 96.96 27.13 96.96 35.73 105.62 35.73 105.62 27.13 113.49 27.13 113.49 50.77 105.62 50.77 105.62 41.83 96.96 41.83 96.96 50.77 89.08 50.77 89.08 27.13 89.08 27.13"/>
    <path class="cls-1" d="M139.33,39.92c0,6.93-4.08,11.16-11.89,11.16s-12.19-3.85-12.19-10.29v-13.65h7.87v12.61c0,3.33,1.68,4.92,4.12,4.92s4.22-1.59,4.22-5.34v-12.2h7.87v12.79h0Z"/>
    <polygon class="cls-1" points="141.31 27.13 148.02 27.13 159.39 39.26 159.39 27.13 166.93 27.13 166.93 50.77 160.21 50.77 148.85 38.64 148.85 50.77 141.31 50.77 141.31 27.13 141.31 27.13"/>
    <polygon class="cls-1" points="168.95 27.13 176.82 27.13 176.82 37.84 185.81 27.13 194.08 27.13 184.92 38.12 194.41 50.77 185.02 50.77 176.89 39.71 176.82 39.71 176.82 50.77 168.95 50.77 168.95 27.13 168.95 27.13"/>
    <path class="cls-1" d="M219.4,44.54c3.93,0,7.12-3.19,7.12-7.12s-3.19-7.12-7.12-7.12-7.12,3.19-7.12,7.12,3.19,7.12,7.12,7.12"/>
    <path class="cls-3" d="M196.92,67.62v-17.18s.2-.11,.2-.11l14.91-7.95,.19,.26c1.68,2.28,4.37,3.64,7.2,3.64,4.93,0,8.94-4.01,8.94-8.94,0-1.02-.17-2.02-.5-2.97l-.11-.3,12.31-6.59,.17,.36c1.37,2.99,2.06,6.18,2.06,9.49,0,12.6-10.24,22.84-22.83,22.84-2.23,0-4.46-.33-6.62-.99l-15.92,8.43Z"/>
    <path class="cls-3" d="M198.82,47.29l-.17-.37c-1.37-2.99-2.06-6.18-2.06-9.49,0-12.6,10.24-22.84,22.83-22.84,2.23,0,4.46,.33,6.62,.99l15.92-8.43V24.32s-15.11,8.05-15.11,8.05l-.19-.26c-1.68-2.3-4.39-3.68-7.23-3.68-4.93,0-8.94,4.01-8.94,8.95,0,1.03,.17,2.04,.52,3.01l.11,.31-.28,.18-12.02,6.43Z"/>
  </g>
</svg>