<?xml version="1.0" encoding="utf-8"?>
<!-- Generator: Adobe Illustrator 26.4.1, SVG Export Plug-In . SVG Version: 6.00 Build 0)  -->
<svg version="1.1" id="Layer_1" xmlns="http://www.w3.org/2000/svg" xmlns:xlink="http://www.w3.org/1999/xlink" x="0px" y="0px"
	 viewBox="0 0 126 65.8" style="enable-background:new 0 0 126 65.8;" xml:space="preserve">
<style type="text/css">
	.st0{filter:url(#Adobe_OpacityMaskFilter);}
	.st1{fill:url(#SVGID_00000170974097663891443180000006908684976922209213_);}
	.st2{mask:url(#SVGID_1_);}
	.st3{fill:#A7A9AC;}
	.st4{fill:#632A7D;}
</style>
<defs>
	<filter id="Adobe_OpacityMaskFilter" filterUnits="userSpaceOnUse" x="4.9" y="55.1" width="121.2" height="10.7">
		<feFlood  style="flood-color:white;flood-opacity:1" result="back"/>
		<feBlend  in="SourceGraphic" in2="back" mode="normal"/>
	</filter>
</defs>
<mask maskUnits="userSpaceOnUse" x="4.9" y="55.1" width="121.2" height="10.7" id="SVGID_1_">
	<g class="st0">
		
			<linearGradient id="SVGID_00000038388784712016731930000005034680556055169956_" gradientUnits="userSpaceOnUse" x1="-48.8803" y1="254.4435" x2="-47.9191" y2="254.4435" gradientTransform="matrix(176.1507 0 0 -176.1507 8755.0889 44859.6797)">
			<stop  offset="0" style="stop-color:#FFFFFF"/>
			<stop  offset="1" style="stop-color:#000000"/>
		</linearGradient>
		
			<rect x="-11.9" y="1.8" style="fill:url(#SVGID_00000038388784712016731930000005034680556055169956_);" width="337.9" height="75"/>
	</g>
</mask>
<g class="st2">
	<g>
		<path class="st3" d="M4.9,55.3h2.7v10.3H4.9V55.3z"/>
		<path class="st3" d="M9.7,55.3h3.5l3.5,7h0l0-7h2.5v10.3h-3.4l-3.6-7.1h0l0.1,7.1H9.7V55.3z"/>
		<path class="st3" d="M22.9,57.4h-2.5v-2h7.8v2h-2.5v8.3h-2.7V57.4z"/>
		<path class="st3" d="M29.3,55.3h7.3v1.9h-4.5v2.1h4.3v2h-4.3v2.3h4.7v2h-7.4V55.3z"/>
		<path class="st3" d="M38.4,55.3h4.9c1.8,0,3.3,0.8,3.3,2.6c0,1.4-0.7,2.3-2,2.6v0c0.9,0.2,0.9,1,1.5,2.3l1,2.8h-2.9l-0.6-1.9
			c-0.6-1.8-0.9-2.2-1.9-2.2h-0.6v4.1h-2.7V55.3z M41.1,59.6h0.7c0.9,0,2,0,2-1.2c0-1-1-1.1-2-1.1h-0.7V59.6z"/>
		<path class="st3" d="M48.3,55.3h3.5l3.5,7h0l0-7h2.5v10.3h-3.4l-3.6-7.1h0l0.1,7.1h-2.5V55.3z"/>
		<path class="st3" d="M62.9,55.3h3.4l4,10.3h-3l-0.8-2.2h-3.9l-0.8,2.2H59L62.9,55.3z M64.6,57.5L64.6,57.5l-1.4,4h2.6L64.6,57.5z"
			/>
		<path class="st3" d="M73.1,57.4h-2.5v-2h7.8v2h-2.5v8.3h-2.7V57.4z"/>
		<path class="st3" d="M79.7,55.3h2.7v10.3h-2.7V55.3z"/>
		<path class="st3" d="M89.3,55.1c3.4,0,5.2,2,5.2,5.3c0,3.3-1.8,5.3-5.2,5.3c-3.4,0-5.2-2.1-5.2-5.3C84.1,57.2,85.9,55.1,89.3,55.1
			z M89.3,63.8c1.7,0,2.3-1.6,2.3-3.3c0-1.8-0.7-3.3-2.3-3.3s-2.3,1.5-2.3,3.3C86.9,62.2,87.6,63.8,89.3,63.8z"/>
		<path class="st3" d="M96,55.3h3.5l3.5,7h0l0-7h2.5v10.3h-3.4l-3.6-7.1h0l0.1,7.1H96V55.3z"/>
		<path class="st3" d="M110.6,55.3h3.4l4,10.3h-3l-0.8-2.2h-3.9l-0.8,2.2h-2.8L110.6,55.3z M112.3,57.5L112.3,57.5l-1.4,4h2.6
			L112.3,57.5z"/>
		<path class="st3" d="M119,55.3h2.8v8.3h4.3v2h-7V55.3z"/>
	</g>
</g>
<path class="st4" d="M122.1,13.5c0.4,0.1,0.4,0,0.1-0.3L104.3,2.1c-0.3-0.2-0.7-0.1-0.7,0.3l-4.3,44.3c0,0.4,0.3,0.7,0.7,0.7
	l23.4-0.1c0.4,0,0.6-0.3,0.5-0.7l-7-22.8c-0.1-0.4-0.5-0.5-0.8-0.3l-7.2,5.6c-0.3,0.3-0.3,0.4,0.1,0.4l6.4-0.8
	c0.4,0,0.8,0.2,0.8,0.6l1.4,11.8c0,0.4-0.2,0.8-0.6,0.9L106.7,45c-0.4,0.1-0.7-0.1-0.7-0.5l-1.7-33.5c0-0.4,0.3-0.7,0.7-0.6
	L122.1,13.5z"/>
<path class="st4" d="M66.1,8.1c0-0.4-0.2-0.9-0.5-1.1l-7.3-4.9c-0.3-0.2-0.6-0.1-0.5,0.3l4,45.7c0,0.4,0.1,0.4,0.1,0L66.1,8.1z"/>
<path class="st4" d="M29.3,4.1c0.4-0.1,0.4-0.2,0-0.3L0.9,0.1C0.5,0.1,0.2,0.3,0.2,0.8l-0.1,9.8c0,0.4,0.3,0.7,0.7,0.6l10.5-2.6
	c0.4-0.1,0.7,0.2,0.7,0.6L8.7,46.7c0,0.4,0.3,0.7,0.7,0.7h6.4c0.4,0,0.7-0.3,0.7-0.7L13.1,8.8c0-0.4,0.3-0.8,0.7-0.9L29.3,4.1z"/>
<path class="st4" d="M55.7,48c0.3,0.3,0.4,0.2,0.1-0.1L41,28.6c-0.2-0.3-0.2-0.8,0.1-1.1l12.2-11.8c0.3-0.3,0.2-0.7-0.1-0.9
	L32.9,2.5c-0.3-0.2-0.7-0.4-0.7-0.4c0,0-0.1,0.3-0.2,0.7l-3.8,43.9c0,0.4,0.3,0.7,0.7,0.7h6.4c0.4,0,0.7-0.3,0.7-0.7l-1.4-16.6
	c0-0.4,0.2-0.5,0.5-0.2L55.7,48z M50.2,15c0.4,0.1,0.4,0.4,0.1,0.6l-15.4,9.8c-0.3,0.2-0.6,0.1-0.7-0.3l-1.3-15
	c0-0.4,0.2-0.6,0.6-0.5L50.2,15z"/>
<path class="st4" d="M83.9,2.4c-0.1-0.4-0.3-0.4-0.4,0l-15,45.4c-0.1,0.4,0,0.5,0.3,0.2l13.5-13.8c0.3-0.3,0.7-0.3,1,0.1l10.2,13.7
	c0.2,0.3,0.4,0.3,0.3-0.1L83.9,2.4z M78.6,28.1c-0.6-0.2-0.9-0.9-0.6-1.4l5.8-12.6c0.2-0.3,0.4-0.4,0.4,0.1l1.6,15.6
	c0.3,0.6-0.1,1-0.7,0.7L78.6,28.1z"/>
</svg>
