<?xml version="1.0" encoding="UTF-8"?>
<svg id="Layer_1" data-name="Layer 1" xmlns="http://www.w3.org/2000/svg" xmlns:xlink="http://www.w3.org/1999/xlink" viewBox="0 0 121.69 63.51">
  <defs>
    <style>
      .cls-1 {
        fill: #fff;
      }

      .cls-2 {
        filter: url(#luminosity-noclip-2);
      }

      .cls-3 {
        mask: url(#mask);
      }

      .cls-4 {
        fill: url(#linear-gradient);
      }
    </style>
    <filter id="luminosity-noclip-2" data-name="luminosity-noclip" x="-11.58" y="1.63" width="326.57" height="72.47" color-interpolation-filters="sRGB" filterUnits="userSpaceOnUse">
      <feFlood flood-color="#fff" result="bg"/>
      <feBlend in="SourceGraphic" in2="bg"/>
    </filter>
    <linearGradient id="linear-gradient" x1="-359.62" y1="329.55" x2="-358.69" y2="329.55" gradientTransform="translate(63486.85 58088.13) scale(176.15 -176.15)" gradientUnits="userSpaceOnUse">
      <stop offset="0" stop-color="#fff"/>
      <stop offset="1" stop-color="#000"/>
    </linearGradient>
    <mask id="mask" x="-11.58" y="1.63" width="326.57" height="72.47" maskUnits="userSpaceOnUse">
      <g class="cls-2">
        <rect class="cls-4" x="-11.58" y="1.63" width="326.57" height="72.47"/>
      </g>
    </mask>
  </defs>
  <g class="cls-3">
    <g>
      <path class="cls-1" d="M4.59,53.37h2.66v9.97h-2.66v-9.97Z"/>
      <path class="cls-1" d="M9.28,53.37h3.39l3.37,6.77h.03l-.04-6.77h2.43v9.97h-3.3l-3.49-6.82h-.03l.08,6.82h-2.44v-9.97Z"/>
      <path class="cls-1" d="M22.07,55.34h-2.46v-1.97h7.57v1.97h-2.46v8h-2.66v-8Z"/>
      <path class="cls-1" d="M28.24,53.37h7.03v1.88h-4.37v2.06h4.13v1.89h-4.13v2.25h4.53v1.89h-7.19v-9.97Z"/>
      <path class="cls-1" d="M36.97,53.37h4.74c1.77,0,3.21,.8,3.21,2.51,0,1.33-.63,2.21-1.92,2.52v.03c.86,.23,.92,.98,1.41,2.2l.97,2.72h-2.77l-.57-1.8c-.54-1.72-.88-2.15-1.87-2.15h-.56v3.94h-2.66v-9.97Zm2.66,4.14h.7c.86,0,1.94-.03,1.94-1.16,0-.93-.93-1.1-1.94-1.1h-.7v2.26Z"/>
      <path class="cls-1" d="M46.62,53.37h3.39l3.37,6.77h.03l-.04-6.77h2.43v9.97h-3.3l-3.49-6.82h-.03l.09,6.82h-2.44v-9.97Z"/>
      <path class="cls-1" d="M60.67,53.37h3.26l3.84,9.97h-2.91l-.74-2.13h-3.74l-.79,2.13h-2.7l3.78-9.97Zm1.63,2.06h-.03l-1.28,3.9h2.5l-1.19-3.9Z"/>
      <path class="cls-1" d="M70.54,55.34h-2.46v-1.97h7.57v1.97h-2.46v8h-2.66v-8Z"/>
      <path class="cls-1" d="M76.9,53.37h2.66v9.97h-2.66v-9.97Z"/>
      <path class="cls-1" d="M86.18,53.2c3.29,0,5,1.96,5,5.16s-1.74,5.16-5,5.16-5-1.99-5-5.16,1.71-5.16,5-5.16Zm0,8.35c1.61,0,2.26-1.55,2.26-3.19,0-1.73-.64-3.19-2.26-3.19s-2.26,1.46-2.26,3.19c0,1.64,.64,3.19,2.26,3.19Z"/>
      <path class="cls-1" d="M92.72,53.37h3.38l3.37,6.77h.03l-.04-6.77h2.43v9.97h-3.3l-3.49-6.82h-.03l.08,6.82h-2.44v-9.97Z"/>
      <path class="cls-1" d="M106.77,53.37h3.26l3.84,9.97h-2.92l-.74-2.13h-3.74l-.79,2.13h-2.7l3.79-9.97Zm1.63,2.06h-.03l-1.29,3.9h2.5l-1.18-3.9Z"/>
      <path class="cls-1" d="M114.92,53.37h2.66v8h4.12v1.97h-6.77v-9.97Z"/>
    </g>
  </g>
  <path class="cls-1" d="M117.94,12.92c.39,.07,.43-.04,.1-.25L100.72,1.9c-.33-.21-.64-.06-.67,.33l-4.14,42.81c-.04,.39,.25,.71,.64,.71l22.64-.06c.39,0,.62-.31,.5-.68l-6.78-22.01c-.12-.38-.46-.49-.77-.24l-6.95,5.41c-.31,.24-.25,.4,.14,.35l6.19-.81c.39-.05,.74,.23,.79,.62l1.35,11.41c.05,.39-.23,.79-.6,.9l-10.04,2.76c-.38,.1-.7-.13-.72-.52l-1.66-32.42c-.02-.39,.28-.65,.67-.58l16.64,3.07Z"/>
  <path class="cls-1" d="M63.8,7.73c.04-.39-.19-.89-.52-1.1l-7.06-4.71c-.33-.22-.57-.07-.53,.32l3.84,44.21c.03,.39,.1,.39,.14,0L63.8,7.73Z"/>
  <path class="cls-1" d="M28.2,3.83c.38-.09,.37-.21-.02-.26L.78,0C.39-.04,.08,.24,.07,.63L0,10.11c0,.39,.3,.63,.68,.54l10.12-2.51c.38-.09,.66,.15,.63,.54l-3.15,36.31c-.03,.39,.26,.71,.65,.71h6.17c.39,0,.69-.32,.65-.71L12.59,8.42c-.03-.39,.25-.79,.63-.88l14.98-3.72Z"/>
  <path class="cls-1" d="M53.75,46.29c.29,.26,.34,.22,.1-.1l-14.32-18.66c-.24-.31-.2-.79,.08-1.06l11.83-11.41c.28-.27,.24-.66-.1-.86L31.74,2.28c-.33-.21-.65-.38-.69-.4-.05-.01-.11,.29-.15,.68l-3.68,42.43c-.03,.39,.26,.71,.65,.71h6.17c.39,0,.69-.32,.65-.71l-1.39-16c-.03-.39,.18-.5,.47-.24l19.96,17.54Zm-5.36-31.89c.37,.12,.41,.39,.07,.61l-14.91,9.46c-.33,.21-.63,.06-.66-.33l-1.26-14.54c-.04-.39,.24-.61,.61-.49l16.14,5.29Z"/>
  <path class="cls-1" d="M81.03,2.22c-.08-.38-.25-.39-.37-.02l-14.48,43.88c-.12,.37,0,.45,.27,.17l13.01-13.37c.27-.28,.69-.25,.92,.06l9.85,13.25c.23,.31,.36,.26,.28-.13L81.03,2.22Zm-5.18,24.82c-.57-.21-.82-.82-.57-1.37l5.64-12.18c.18-.3,.36-.37,.36,.09l1.54,15.03c.28,.6-.14,.92-.7,.71l-6.26-2.29Z"/>
</svg>