<?xml version="1.0" encoding="UTF-8"?>
<svg id="Layer_1" data-name="Layer 1" xmlns="http://www.w3.org/2000/svg" viewBox="0 0 614.55 590.58">
  <defs>
    <style>
      .cls-1 {
        fill: #f7be00;
      }

      .cls-2 {
        fill: #008c9a;
      }
    </style>
  </defs>
  <g>
    <g>
      <path class="cls-2" d="M338.54,0l229.18,396.99-30.97,49.63H77.97l-31.15-51.95,390.68-.49-129.68-227.53-98.59,170.74h-63.34L338.54,0Zm194.91,441.05L339.21,114.01l-.54-.86-27.18,47.13-.48,.79,1.59,2.69,129.8,227.59,4.77,8.39-9.67,.06-380.77,.49,24.41,40.75h452.31Z"/>
      <polygon class="cls-1" points="338.56 0 145.91 337.38 405.81 337.38 437.51 394.17 46.83 394.66 276.45 0 338.56 0"/>
    </g>
    <polygon points="338.67 113.16 307.82 166.65 437.51 394.17 46.83 394.66 77.97 446.62 536.76 446.62 338.67 113.16"/>
  </g>
  <g>
    <polygon points="38.47 590.57 55.58 590.57 55.58 507.62 94.05 507.62 94.05 493.14 0 493.14 0 507.62 38.47 507.62 38.47 590.57"/>
    <path d="M175.43,549.85c12.28,0,24.97,0,24.97-19.31v-18.1c0-19.29-12.68-19.29-26.11-19.29h-61.16v97.43h17.12v-40.73h21.95l30.56,40.73h21.11l-30.55-40.73h2.11Zm-45.18-14.48v-27.76h45.18c3.32,0,7.86,0,7.86,6.34v15.07c0,6.34-4.54,6.34-7.86,6.34h-45.18Z"/>
    <rect x="224" y="493.14" width="17.13" height="97.43"/>
    <polygon points="264.73 493.14 264.73 590.57 281.85 590.57 281.85 517.33 332.12 590.57 352.01 590.57 352.01 493.14 334.89 493.14 334.89 566.38 284.62 493.14 264.73 493.14"/>
    <rect x="375.6" y="493.14" width="17.12" height="97.43"/>
    <polygon points="450.28 590.57 467.39 590.57 467.39 507.62 505.86 507.62 505.86 493.14 411.8 493.14 411.8 507.62 450.28 507.62 450.28 590.57"/>
    <polygon points="593.43 493.14 567.44 527.78 541.46 493.14 520.35 493.14 558.88 544.52 558.88 590.57 576.01 590.57 576.01 544.52 576.22 544.24 614.55 493.14 593.43 493.14"/>
  </g>
</svg>