<?xml version="1.0" encoding="utf-8"?>
<!-- Generator: Adobe Illustrator 26.4.1, SVG Export Plug-In . SVG Version: 6.00 Build 0)  -->
<svg version="1.1" id="Layer_1" xmlns="http://www.w3.org/2000/svg" xmlns:xlink="http://www.w3.org/1999/xlink" x="0px" y="0px"
	 viewBox="0 0 1027 247.8" style="enable-background:new 0 0 1027 247.8;" xml:space="preserve">
<style type="text/css">
	.st0{fill:#FFFFFF;}
	.st1{fill:#008C9A;}
	.st2{fill:#F7BE00;}
</style>
<g>
	<g>
		<g>
			<polygon class="st0" points="336.5,157.3 357,157.3 357,57.9 403.1,57.9 403.1,40.5 290.3,40.5 290.3,57.9 336.5,57.9 			"/>
			<path class="st0" d="M500.6,108.5c14.7,0,29.9,0,29.9-23.2V63.7c0-23.1-15.2-23.1-31.3-23.1H426v116.8h20.5v-48.8h26.3l36.6,48.8
				h25.3l-36.6-48.8H500.6z M446.5,91.2V57.9h54.2c4,0,9.4,0,9.4,7.6v18.1c0,7.6-5.4,7.6-9.4,7.6H446.5z"/>
			<rect x="558.9" y="40.5" class="st0" width="20.5" height="116.8"/>
			<polygon class="st0" points="607.7,40.5 607.7,157.3 628.2,157.3 628.2,69.5 688.5,157.3 712.3,157.3 712.3,40.5 691.8,40.5 
				691.8,128.3 631.5,40.5 			"/>
			<rect x="740.6" y="40.5" class="st0" width="20.5" height="116.8"/>
			<polygon class="st0" points="830.1,157.3 850.6,157.3 850.6,57.9 896.7,57.9 896.7,40.5 784,40.5 784,57.9 830.1,57.9 			"/>
			<polygon class="st0" points="1001.7,40.5 970.5,82.1 939.4,40.5 914.1,40.5 960.3,102.1 960.3,157.3 980.8,157.3 980.8,102.1 
				981.1,101.8 1027,40.5 			"/>
		</g>
		<g>
			<path class="st0" d="M334.2,207.3V178h21.1c2,0,3.4,0.4,4.3,1.3c0.9,0.9,1.3,2.3,1.3,4.3v6.9c0,2-0.4,3.4-1.3,4.3
				c-0.9,0.9-2.3,1.4-4.3,1.4h-3.2l11.4,11.1h-8.3l-10-11.1h-5.4v11.1H334.2z M352.8,183.1h-12.9v8.1h12.9c1,0,1.7-0.2,2-0.5
				c0.4-0.3,0.5-0.9,0.5-1.8v-3.5c0-0.8-0.2-1.4-0.5-1.8C354.4,183.2,353.7,183.1,352.8,183.1z"/>
			<path class="st0" d="M372,184.9c0-2.7,0.4-4.5,1.3-5.5c0.8-1,2.5-1.5,4.9-1.5h18.2c2.4,0,4,0.5,4.9,1.5c0.8,1,1.3,2.8,1.3,5.5
				v15.4c0,2.7-0.4,4.5-1.3,5.5c-0.8,1-2.5,1.5-4.9,1.5h-18.2c-2.4,0-4-0.5-4.9-1.5c-0.8-1-1.3-2.8-1.3-5.5V184.9z M377.8,201.8h19
				v-18.5h-19V201.8z"/>
			<path class="st0" d="M414.6,207.3V178h21.2c1.9,0,3.4,0.5,4.2,1.4c0.9,0.9,1.3,2.3,1.3,4.3v3.6c0,1.4-0.4,2.5-1.1,3.4
				c-0.7,0.8-1.8,1.4-3.2,1.6c1.4,0.2,2.5,0.8,3.3,1.8c0.8,1,1.2,2.3,1.2,3.8v3.7c0,1.9-0.6,3.4-1.8,4.3c-1.2,0.9-3,1.4-5.5,1.4
				H414.6z M433.3,182.8h-13.1v7h13.1c1,0,1.7-0.2,2.1-0.5c0.4-0.3,0.6-0.9,0.6-1.6v-2.8c0-0.8-0.2-1.3-0.6-1.6
				C435,182.9,434.3,182.8,433.3,182.8z M433.3,194.6h-13.1v7.5h13.1c1.1,0,1.8-0.2,2.2-0.6c0.4-0.4,0.6-1.1,0.6-2v-2.2
				c0-1-0.2-1.7-0.6-2C435.2,194.8,434.4,194.6,433.3,194.6z"/>
			<path class="st0" d="M452.1,184.9c0-2.7,0.4-4.5,1.3-5.5c0.8-1,2.5-1.5,4.9-1.5h18.2c2.4,0,4,0.5,4.9,1.5c0.8,1,1.3,2.8,1.3,5.5
				v15.4c0,2.7-0.4,4.5-1.3,5.5c-0.8,1-2.5,1.5-4.9,1.5h-18.2c-2.4,0-4-0.5-4.9-1.5s-1.3-2.8-1.3-5.5V184.9z M457.8,201.8h19v-18.5
				h-19V201.8z"/>
			<path class="st0" d="M506.1,183.2v24h-5.7v-24H489V178h28.5v5.2H506.1z"/>
			<path class="st0" d="M524.5,207.3V178h5.7v29.3H524.5z"/>
			<path class="st0" d="M563.6,183.2h-15.5v18.5h15.5v-6.3l5.7,1.4v3.5c0,2.7-0.4,4.5-1.3,5.5c-0.8,1-2.5,1.5-4.8,1.5h-14.7
				c-2.4,0-4-0.5-4.9-1.5s-1.3-2.8-1.3-5.5v-15.4c0-2.7,0.4-4.5,1.3-5.5c0.8-1,2.5-1.5,4.9-1.5h14.7c2.4,0,4,0.5,4.8,1.5
				c0.8,1,1.3,2.8,1.3,5.5v2.8l-5.7,1.1V183.2z"/>
			<path class="st0" d="M601.8,183.1h-16.2v6.3H601c2.4,0,4,0.5,4.9,1.5c0.8,1,1.3,2.8,1.3,5.5v4c0,2.7-0.4,4.5-1.3,5.5
				c-0.8,1-2.5,1.5-4.9,1.5h-15.3c-2.4,0-4-0.5-4.9-1.5c-0.8-1-1.3-2.8-1.3-5.5v-0.8l5.1-1.2v3.5h17.5v-6.7h-15.4
				c-2.4,0-4-0.5-4.9-1.5c-0.8-1-1.3-2.8-1.3-5.5v-3.2c0-2.7,0.4-4.5,1.3-5.5c0.8-1,2.5-1.5,4.9-1.5h14c2.3,0,3.9,0.5,4.8,1.4
				c0.9,0.9,1.3,2.6,1.3,5v0.6l-5.1,1.4V183.1z"/>
			<path class="st0" d="M632.9,207.3l14-29.3h5.5l14.2,29.3h-6.5l-3-6.4h-15.7l-2.9,6.4H632.9z M644,195.6h10.8l-5.3-11.9L644,195.6
				z"/>
			<path class="st0" d="M679.2,178v23.8h16.4V178h5.7v22.4c0,2.7-0.4,4.5-1.3,5.5c-0.8,1-2.5,1.5-4.9,1.5h-15.6
				c-2.4,0-4-0.5-4.8-1.5c-0.8-1-1.3-2.8-1.3-5.5V178H679.2z"/>
			<path class="st0" d="M725.5,183.2v24h-5.7v-24h-11.3V178h28.5v5.2H725.5z"/>
			<path class="st0" d="M743.4,184.9c0-2.7,0.4-4.5,1.3-5.5c0.8-1,2.5-1.5,4.9-1.5h18.2c2.4,0,4,0.5,4.9,1.5c0.8,1,1.3,2.8,1.3,5.5
				v15.4c0,2.7-0.4,4.5-1.3,5.5c-0.8,1-2.5,1.5-4.9,1.5h-18.2c-2.4,0-4-0.5-4.9-1.5c-0.8-1-1.3-2.8-1.3-5.5V184.9z M749.1,201.8h19
				v-18.5h-19V201.8z"/>
			<path class="st0" d="M785.9,207.3V178h4.7l11.6,17.7l11.4-17.7h4.6v29.3h-5.3v-18.1c0-0.4,0-0.8,0.1-1.3c0-0.5,0.1-1.1,0.2-1.8
				c-0.3,0.8-0.6,1.4-0.8,1.9c-0.2,0.5-0.4,0.9-0.6,1.2l-9.3,14.6h-1.1l-9.3-14.7c-0.3-0.6-0.6-1.1-0.9-1.6c-0.2-0.5-0.4-1-0.6-1.4
				c0,0.6,0.1,1.2,0.1,1.7c0,0.5,0,1,0,1.4v18.1H785.9z"/>
			<path class="st0" d="M825.5,207.3l14-29.3h5.5l14.2,29.3h-6.5l-3-6.4h-15.7l-2.9,6.4H825.5z M836.6,195.6h10.8l-5.3-11.9
				L836.6,195.6z"/>
			<path class="st0" d="M875.4,183.2v24h-5.7v-24h-11.3V178h28.5v5.2H875.4z"/>
			<path class="st0" d="M893.8,207.3V178h5.7v29.3H893.8z"/>
			<path class="st0" d="M911.7,184.9c0-2.7,0.4-4.5,1.3-5.5c0.8-1,2.5-1.5,4.9-1.5H936c2.4,0,4,0.5,4.9,1.5c0.8,1,1.3,2.8,1.3,5.5
				v15.4c0,2.7-0.4,4.5-1.3,5.5c-0.8,1-2.5,1.5-4.9,1.5h-18.2c-2.4,0-4-0.5-4.9-1.5c-0.8-1-1.3-2.8-1.3-5.5V184.9z M917.4,201.8h19
				v-18.5h-19V201.8z"/>
			<path class="st0" d="M954.1,207.3V178h3.9l17.4,17.3c0.6,0.6,1.1,1.1,1.6,1.6c0.5,0.5,0.9,1,1.2,1.6c-0.1-1.6-0.2-2.8-0.2-3.5
				c0-0.7,0-1.2,0-1.6V178h5.2v29.3h-3.9l-18.1-18.1c-0.4-0.5-0.8-0.9-1.1-1.2c-0.3-0.4-0.6-0.7-0.9-1.1c0.1,0.9,0.1,1.8,0.2,2.6
				c0,0.8,0.1,1.5,0.1,2.1v15.8H954.1z"/>
		</g>
	</g>
	<g>
		<polygon points="164.8,52.4 272.1,242.4 270.2,246 18.1,246.1 4.3,220.1 219.7,219.9 141.8,86.2 		"/>
		<g>
			<path class="st1" d="M161.9,0L289,220.3l-17.2,27.5H17.3L0,219l216.8-0.3l-72-126.3l-54.7,94.7H55L161.9,0z M270,244.7
				L162.2,63.3l-0.3-0.5l-15.1,26.2l-0.3,0.4l0.9,1.5l72,126.3l2.6,4.7l-5.4,0L5.5,222.1L19,244.7H270z"/>
			<polygon class="st1" points="161.9,62.8 162.2,63.3 146.9,88.9 			"/>
			<polygon class="st2" points="161.9,0 55,187.2 199.2,187.2 216.8,218.7 0,219 127.4,0 			"/>
		</g>
	</g>
</g>
</svg>
